<mxfile host="app.diagrams.net" agent="Mozilla/5.0 (Windows NT 10.0; Win64; x64) AppleWebKit/537.36 (KHTML, like Gecko) Chrome/130.0.0.0 Safari/537.36" version="24.8.4">
  <diagram name="过程评估" id="HaafwIo1bC8UBRv2eBfS">
    <mxGraphModel dx="1221" dy="771" grid="1" gridSize="10" guides="1" tooltips="1" connect="1" arrows="1" fold="1" page="1" pageScale="1" pageWidth="827" pageHeight="1169" math="0" shadow="0">
      <root>
        <mxCell id="0" />
        <mxCell id="1" parent="0" />
        <mxCell id="yI2PNj2TWkQzEAzARjSu-3" style="edgeStyle=orthogonalEdgeStyle;rounded=0;orthogonalLoop=1;jettySize=auto;html=1;exitX=0.5;exitY=1;exitDx=0;exitDy=0;exitPerimeter=0;entryX=0.5;entryY=0;entryDx=0;entryDy=0;" edge="1" parent="1" source="yI2PNj2TWkQzEAzARjSu-1" target="yI2PNj2TWkQzEAzARjSu-2">
          <mxGeometry relative="1" as="geometry" />
        </mxCell>
        <mxCell id="yI2PNj2TWkQzEAzARjSu-1" value="开始，任务" style="verticalLabelPosition=bottom;verticalAlign=top;html=1;shape=mxgraph.flowchart.on-page_reference;" vertex="1" parent="1">
          <mxGeometry x="360" y="10" width="60" height="60" as="geometry" />
        </mxCell>
        <mxCell id="yI2PNj2TWkQzEAzARjSu-7" style="edgeStyle=orthogonalEdgeStyle;rounded=0;orthogonalLoop=1;jettySize=auto;html=1;exitX=0.5;exitY=1;exitDx=0;exitDy=0;" edge="1" parent="1" source="yI2PNj2TWkQzEAzARjSu-2" target="yI2PNj2TWkQzEAzARjSu-6">
          <mxGeometry relative="1" as="geometry" />
        </mxCell>
        <mxCell id="yI2PNj2TWkQzEAzARjSu-2" value="过程数据" style="shape=parallelogram;html=1;strokeWidth=2;perimeter=parallelogramPerimeter;whiteSpace=wrap;rounded=1;arcSize=12;size=0.23;" vertex="1" parent="1">
          <mxGeometry x="340" y="130" width="100" height="30" as="geometry" />
        </mxCell>
        <mxCell id="yI2PNj2TWkQzEAzARjSu-22" value="" style="edgeStyle=orthogonalEdgeStyle;rounded=0;orthogonalLoop=1;jettySize=auto;html=1;" edge="1" parent="1" source="yI2PNj2TWkQzEAzARjSu-6">
          <mxGeometry relative="1" as="geometry">
            <mxPoint x="410" y="680" as="targetPoint" />
          </mxGeometry>
        </mxCell>
        <mxCell id="yI2PNj2TWkQzEAzARjSu-6" value="" style="rounded=0;whiteSpace=wrap;html=1;" vertex="1" parent="1">
          <mxGeometry x="100" y="220" width="620" height="380" as="geometry" />
        </mxCell>
        <mxCell id="yI2PNj2TWkQzEAzARjSu-18" style="edgeStyle=orthogonalEdgeStyle;rounded=0;orthogonalLoop=1;jettySize=auto;html=1;exitX=1;exitY=0.5;exitDx=0;exitDy=0;entryX=0.5;entryY=0;entryDx=0;entryDy=0;" edge="1" parent="1" source="yI2PNj2TWkQzEAzARjSu-11" target="yI2PNj2TWkQzEAzARjSu-13">
          <mxGeometry relative="1" as="geometry" />
        </mxCell>
        <mxCell id="yI2PNj2TWkQzEAzARjSu-11" value="" style="shape=ext;double=1;rounded=1;whiteSpace=wrap;html=1;" vertex="1" parent="1">
          <mxGeometry x="220" y="230" width="120" height="80" as="geometry" />
        </mxCell>
        <mxCell id="yI2PNj2TWkQzEAzARjSu-19" style="edgeStyle=orthogonalEdgeStyle;rounded=0;orthogonalLoop=1;jettySize=auto;html=1;exitX=0;exitY=0.5;exitDx=0;exitDy=0;" edge="1" parent="1" source="yI2PNj2TWkQzEAzARjSu-13" target="yI2PNj2TWkQzEAzARjSu-14">
          <mxGeometry relative="1" as="geometry" />
        </mxCell>
        <mxCell id="yI2PNj2TWkQzEAzARjSu-13" value="" style="shape=ext;double=1;rounded=1;whiteSpace=wrap;html=1;" vertex="1" parent="1">
          <mxGeometry x="490" y="320" width="120" height="80" as="geometry" />
        </mxCell>
        <mxCell id="yI2PNj2TWkQzEAzARjSu-20" style="edgeStyle=orthogonalEdgeStyle;rounded=0;orthogonalLoop=1;jettySize=auto;html=1;exitX=0.5;exitY=1;exitDx=0;exitDy=0;" edge="1" parent="1" source="yI2PNj2TWkQzEAzARjSu-14" target="yI2PNj2TWkQzEAzARjSu-15">
          <mxGeometry relative="1" as="geometry" />
        </mxCell>
        <mxCell id="yI2PNj2TWkQzEAzARjSu-14" value="" style="shape=ext;double=1;rounded=1;whiteSpace=wrap;html=1;" vertex="1" parent="1">
          <mxGeometry x="230" y="410" width="120" height="80" as="geometry" />
        </mxCell>
        <mxCell id="yI2PNj2TWkQzEAzARjSu-15" value="" style="shape=ext;double=1;rounded=0;whiteSpace=wrap;html=1;" vertex="1" parent="1">
          <mxGeometry x="470" y="480" width="120" height="80" as="geometry" />
        </mxCell>
        <mxCell id="yI2PNj2TWkQzEAzARjSu-25" value="" style="edgeStyle=orthogonalEdgeStyle;rounded=0;orthogonalLoop=1;jettySize=auto;html=1;" edge="1" parent="1" source="yI2PNj2TWkQzEAzARjSu-23" target="yI2PNj2TWkQzEAzARjSu-24">
          <mxGeometry relative="1" as="geometry" />
        </mxCell>
        <mxCell id="yI2PNj2TWkQzEAzARjSu-23" value="简历评估指标" style="shape=ext;double=1;rounded=1;whiteSpace=wrap;html=1;" vertex="1" parent="1">
          <mxGeometry x="350" y="630" width="120" height="80" as="geometry" />
        </mxCell>
        <mxCell id="yI2PNj2TWkQzEAzARjSu-27" value="" style="edgeStyle=orthogonalEdgeStyle;rounded=0;orthogonalLoop=1;jettySize=auto;html=1;" edge="1" parent="1" source="yI2PNj2TWkQzEAzARjSu-24" target="yI2PNj2TWkQzEAzARjSu-26">
          <mxGeometry relative="1" as="geometry" />
        </mxCell>
        <mxCell id="yI2PNj2TWkQzEAzARjSu-24" value="权重打分" style="shape=ext;double=1;rounded=1;whiteSpace=wrap;html=1;" vertex="1" parent="1">
          <mxGeometry x="350" y="790" width="120" height="80" as="geometry" />
        </mxCell>
        <mxCell id="yI2PNj2TWkQzEAzARjSu-29" value="" style="edgeStyle=orthogonalEdgeStyle;rounded=0;orthogonalLoop=1;jettySize=auto;html=1;" edge="1" parent="1" source="yI2PNj2TWkQzEAzARjSu-26" target="yI2PNj2TWkQzEAzARjSu-28">
          <mxGeometry relative="1" as="geometry" />
        </mxCell>
        <mxCell id="yI2PNj2TWkQzEAzARjSu-26" value="效能评估" style="shape=ext;double=1;rounded=1;whiteSpace=wrap;html=1;" vertex="1" parent="1">
          <mxGeometry x="350" y="950" width="120" height="80" as="geometry" />
        </mxCell>
        <mxCell id="yI2PNj2TWkQzEAzARjSu-28" value="灵敏度分析" style="shape=ext;double=1;rounded=1;whiteSpace=wrap;html=1;" vertex="1" parent="1">
          <mxGeometry x="350" y="1110" width="120" height="80" as="geometry" />
        </mxCell>
      </root>
    </mxGraphModel>
  </diagram>
</mxfile>
